<svg width="29" height="25" viewBox="0 0 29 25" fill="none" xmlns="http://www.w3.org/2000/svg">
<path fill-rule="evenodd" clip-rule="evenodd" d="M22.5827 4.47344C23.6106 4.75598 24.4212 5.58341 24.698 6.63282C25.212 8.55004 25.1922 12.5459 25.1922 12.5459C25.1922 12.5459 25.1922 16.5216 24.698 18.4388C24.4212 19.4882 23.6106 20.3156 22.5827 20.5982C20.7045 21.1027 13.1922 21.1027 13.1922 21.1027C13.1922 21.1027 5.69966 21.1027 3.80181 20.578C2.7738 20.2955 1.96327 19.468 1.68649 18.4186C1.19226 16.5216 1.19226 12.5257 1.19226 12.5257C1.19226 12.5257 1.19226 8.55004 1.68649 6.63282C1.96327 5.58341 2.79358 4.7358 3.80181 4.45326C5.67989 3.94873 13.1922 3.94873 13.1922 3.94873C13.1922 3.94873 20.7045 3.94873 22.5827 4.47344ZM10.8004 8.85286L17.0474 12.5259L10.8004 16.1988V8.85286Z" fill="white"/>
</svg>
